# xmcd CD database file
#
# Track frame offsets:
#	150
#	23978
#	42949
#	62932
#	91496
#	114821
#	130483
#	152851
#	170231
#
# Disc length: 2497 seconds
#
# Revision: 0
# Processed by: cddbd v1.5.2PL0 Copyright (c) Steve Scherf et al.
# Submitted via: CDex 1.79
#
DISCID=7b09bf09
DTITLE=Barrelhouse - Beware....!
DYEAR=1979
DGENRE=Blues
TTITLE0=Beware
TTITLE1=I'm Torn Down
TTITLE2=I'll Be Thinkin' Of You
TTITLE3=I Don't Wanna Be A Loser
TTITLE4=Callin' Out Your Name
TTITLE5=You're Gonna Change
TTITLE6=Callin' Albert
TTITLE7=Don't Tie Me down
TTITLE8=City Lights
EXTD=YEAR: 1979
EXTT0=
EXTT1=
EXTT2=
EXTT3=
EXTT4=
EXTT5=
EXTT6=
EXTT7=
EXTT8=
PLAYORDER=
